HIERARCHY
ROOT Hips
{
	OFFSET 0.000000 0.000000 0.000000 
	CHANNELS 6 Xposition Yposition Zposition Zrotation Yrotation Xrotation
	JOINT LeftUpLeg
	{
		OFFSET 1.363060 -1.794630 0.839290 
		CHANNELS 3 Zrotation Yrotation Xrotation
		JOINT LeftLeg
		{
			OFFSET 2.448110 -6.726130 0.000000 
			CHANNELS 3 Zrotation Yrotation Xrotation
			JOINT LeftFoot
			{
				OFFSET 2.562200 -7.039590 0.000000 
				CHANNELS 3 Zrotation Yrotation Xrotation
				JOINT LeftToeBase
				{
					OFFSET 0.157640 -0.433110 2.322550 
					CHANNELS 3 Zrotation Yrotation Xrotation
					End Site
					{
						OFFSET 0.000000 0.000000 0.000000 
					}
				}
			}
		}
	}
	JOINT RightUpLeg
	{
		OFFSET -1.305520 -1.794630 0.839290 
		CHANNELS 3 Zrotation Yrotation Xrotation
		JOINT RightLeg
		{
			OFFSET -2.542530 -6.985550 0.000000 
			CHANNELS 3 Zrotation Yrotation Xrotation
			JOINT RightFoot
			{
				OFFSET -2.568260 -7.056230 0.000000 
				CHANNELS 3 Zrotation Yrotation Xrotation
				JOINT RightToeBase
				{
					OFFSET -0.164730 -0.452590 2.363150 
					CHANNELS 3 Zrotation Yrotation Xrotation
					End Site
					{
						OFFSET 0.000000 0.000000 0.000000 
					}
				}
			}
		}
	}
	JOINT Spine
	{
		OFFSET 0.028270 2.035590 -0.193380 
		CHANNELS 3 Zrotation Yrotation Xrotation
		JOINT Spine1
		{
			OFFSET 0.056720 2.048850 -0.042750 
			CHANNELS 3 Zrotation Yrotation Xrotation
			JOINT Neck1
			{
				OFFSET -0.054170 1.746240 0.172020 
				CHANNELS 3 Zrotation Yrotation Xrotation
				JOINT Head
				{
					OFFSET 0.104070 1.761360 -0.123970 
					CHANNELS 3 Zrotation Yrotation Xrotation
					End Site
					{
						OFFSET 0.000000 0.000000 0.000000 
					}
				}
			}
			JOINT LeftArm
			{
				OFFSET 3.362410 1.200890 -0.311210 
				CHANNELS 3 Zrotation Yrotation Xrotation
				JOINT LeftForeArm
				{
					OFFSET 4.983000 -0.000000 -0.000000 
					CHANNELS 3 Zrotation Yrotation Xrotation
					JOINT LeftHand
					{
						OFFSET 3.483560 -0.000000 -0.000000 
						CHANNELS 3 Zrotation Yrotation Xrotation
						JOINT LeftHandIndex1
						{
							OFFSET 0.715260 -0.000000 -0.000000 
							CHANNELS 3 Zrotation Yrotation Xrotation
							End Site
							{
								OFFSET 0.000000 0.000000 0.000000 
							}
						}
					}
				}
			}
			JOINT RightArm
			{
				OFFSET -3.136600 1.374050 -0.404650 
				CHANNELS 3 Zrotation Yrotation Xrotation
				JOINT RightForeArm
				{
					OFFSET -5.241900 -0.000000 -0.000000 
					CHANNELS 3 Zrotation Yrotation Xrotation
					JOINT RightHand
					{
						OFFSET -3.444170 -0.000000 -0.000000 
						CHANNELS 3 Zrotation Yrotation Xrotation
						JOINT RightHandIndex1
						{
							OFFSET -0.622530 -0.000000 -0.000000 
							CHANNELS 3 Zrotation Yrotation Xrotation
							End Site
							{
								OFFSET 0.000000 0.000000 0.000000 
							}
						}
					}
				}
			}
		}
	}
}
MOTION
Frames: 13
Frame Time: 0.041667
48.887536 16.966282 -5.409252 -174.387192 4.396056 174.828459 -18.561025 15.894404 -14.538831 -1.555436 3.039734 7.095236 -2.297213 17.974265 -3.513506 0.561700 4.800400 13.340200 29.681728 -15.846046 32.173116 -0.271196 -7.845418 15.951759 -0.458558 3.043805 -13.346883 -0.031400 -1.144000 3.145100 0.092904 6.748146 -2.715168 -6.460235 3.205503 0.312983 2.518994 14.257031 6.414760 -2.349100 7.048000 9.709500 -86.067914 18.692650 25.022105 14.457156 -25.291567 -3.651973 -0.149529 0.571835 8.034903 -7.125000 0.000000 0.000000 82.353324 6.778909 43.565116 -37.522989 49.096626 -14.295087 1.278425 -2.112073 -5.508523 7.125000 0.000000 0.000000 
48.897253 16.999526 -5.554093 -174.884828 4.140974 174.668441 -19.000528 15.504568 -13.278839 -1.611424 2.803230 6.389568 -2.259283 17.955726 -3.931863 0.583400 4.890700 13.597000 29.444019 -15.476460 32.597668 -0.320794 -8.021965 16.522846 -0.395972 2.472211 -12.311072 -0.130600 -2.329600 6.417500 0.035679 6.834165 -2.732654 -6.274926 3.256973 0.205727 2.611165 14.368107 6.485629 -2.254900 7.096800 9.717300 -85.786988 18.320321 25.243545 15.035383 -26.046328 -3.910917 -0.099385 0.490925 9.769432 -7.125000 0.000000 0.000000 82.547443 5.928820 43.931296 -37.725070 49.230026 -14.402405 1.277783 -2.114388 -6.029920 7.125000 0.000000 0.000000 
48.879250 17.026530 -5.687989 -175.298201 3.686771 174.654295 -19.647127 16.869450 -13.790999 -1.504225 3.140696 7.308952 -1.916647 15.957077 -3.635901 0.636900 5.106100 14.211300 28.832477 -15.464703 32.554908 -0.396081 -8.259822 17.228481 -0.331243 2.027203 -11.012563 -0.181800 -2.746500 7.573800 -0.049045 6.826783 -2.774170 -6.453999 3.265747 0.096115 2.636534 14.511866 6.594899 -2.198500 7.162200 9.771500 -85.454200 17.958533 25.498202 15.211073 -26.246230 -3.985716 -0.092644 0.495620 10.197831 -7.125000 0.000000 0.000000 82.857570 5.099476 44.138457 -37.813044 49.306137 -14.439250 1.281954 -2.124186 -6.247247 7.125000 0.000000 0.000000 
48.885899 17.058751 -5.835593 -175.398397 3.398317 174.528640 -19.649544 14.880502 -11.422522 -1.674354 2.544833 5.620521 -2.151345 17.537911 -4.872771 0.748500 5.526100 15.415400 28.800270 -15.404220 32.709851 -0.442541 -8.475023 17.853223 -0.283625 1.382135 -10.005038 -0.219000 -3.012700 8.314200 -0.075862 6.869722 -2.787006 -6.413360 3.289231 0.073018 2.809918 14.681898 6.631071 -2.063100 7.250800 9.751600 -85.060725 17.672984 26.273433 15.248037 -26.288996 -3.998010 -0.123380 0.515952 9.003470 -7.125000 0.000000 0.000000 83.317066 4.302070 44.176899 -37.736096 49.273508 -14.364538 1.297749 -2.131984 -5.980902 7.125000 0.000000 0.000000 
48.854394 17.084324 -5.981457 -175.539377 2.830628 174.678187 -20.120420 14.532062 -10.878676 -1.696451 2.504799 5.464657 -2.056384 17.074319 -5.214073 0.887300 6.004500 16.797600 28.054895 -15.769074 32.369045 -0.524543 -8.726944 18.554475 -0.242971 1.184055 -8.676672 -0.292000 -3.475000 9.604200 -0.131253 6.759305 -2.833884 -6.635321 3.237770 0.121486 2.974795 14.905482 6.719538 -1.919100 7.366200 9.750300 -84.875875 17.374603 26.757258 15.317878 -26.360433 -4.023760 -0.139961 0.523199 8.360446 -7.125000 0.000000 0.000000 83.589070 3.460161 44.377993 -37.740578 49.300851 -14.338051 1.324489 -2.132533 -5.772442 7.125000 0.000000 0.000000 
48.855008 17.116136 -6.129469 -175.777112 2.622955 174.559180 -20.381826 16.886477 -11.197267 -1.550446 2.675034 6.008843 -1.651791 14.631283 -4.398125 1.024600 6.439200 18.064100 27.447352 -15.917597 32.568616 -0.586934 -8.900717 19.081108 -0.210591 0.949241 -7.189046 -0.441400 -4.263100 11.818100 -0.135858 6.837071 -2.848954 -6.575936 3.285898 0.025975 2.274844 15.166044 7.056278 -2.405500 7.461600 10.170800 -84.693406 17.033643 26.923483 15.365204 -26.441375 -4.049766 -0.132735 0.544748 8.312510 -7.125000 0.000000 0.000000 83.798317 2.563468 44.594560 -37.829173 49.336125 -14.360240 1.348051 -2.122151 -5.767875 7.125000 0.000000 0.000000 
48.835573 17.137207 -6.270526 -175.825919 2.208575 174.615713 -20.580881 15.438533 -9.532511 -1.664217 2.261165 4.839525 -1.765006 15.474041 -5.570002 1.248500 7.084400 19.965500 27.063082 -16.035876 32.390743 -0.668352 -9.127632 19.741426 -0.192325 0.801209 -5.576538 -0.604000 -4.974800 13.836700 -0.174412 6.840634 -2.884011 -6.772661 3.290258 0.010857 2.076620 15.323066 7.203048 -2.533900 7.530600 10.298300 -84.431829 16.705957 27.164252 15.459023 -26.552227 -4.089271 -0.166740 0.557065 8.115251 -7.125000 0.000000 0.000000 84.072117 1.705452 44.712205 -37.862110 49.366115 -14.347312 1.374946 -2.117679 -5.735699 7.125000 0.000000 0.000000 
48.812353 17.157972 -6.405138 -175.573775 1.868515 174.630983 -20.388627 15.619977 -9.151949 -1.640414 2.306695 5.013387 -1.680704 14.893161 -5.904342 1.396400 7.475600 21.132300 27.121541 -16.111768 32.087329 -0.750258 -9.410940 20.542251 -0.187660 0.365179 -4.199442 -0.494500 -4.508700 12.512300 -0.193090 6.822673 -2.916302 -7.137278 3.279304 -0.025744 1.929820 15.606624 7.249777 -2.626100 7.669700 10.387400 -84.181323 16.347990 27.457967 15.615871 -26.734412 -4.156397 -0.191836 0.566051 7.072867 -7.125000 0.000000 0.000000 84.491003 0.964471 44.766858 -37.736917 49.305951 -14.233298 1.402517 -2.121302 -5.648047 7.125000 0.000000 0.000000 
48.814604 17.178737 -6.538728 -175.275492 1.683165 174.576277 -19.924053 16.284474 -8.678024 -1.593791 2.231129 4.906164 -1.573876 14.174919 -5.845631 1.640200 8.072600 22.934800 27.503775 -15.998540 31.907266 -0.825709 -9.689491 21.346503 -0.192936 -0.334424 -2.884596 -0.240500 -3.156200 8.713800 -0.162440 6.811113 -2.950679 -7.164385 3.269004 -0.151813 1.831434 15.872241 7.368273 -2.668800 7.789800 10.495800 -84.047652 15.998528 27.652475 15.939848 -27.141491 -4.305441 -0.181449 0.559343 4.547517 -7.125000 0.000000 0.000000 84.872478 0.268432 44.920876 -37.552090 49.189606 -14.086036 1.420401 -2.126560 -5.594615 7.125000 0.000000 0.000000 
48.780644 17.195717 -6.665055 -175.211010 1.213820 174.626961 -20.031445 15.578142 -7.997880 -1.629291 2.170117 4.720581 -1.587413 14.320011 -6.212112 1.752800 8.331000 23.724000 27.039958 -16.195578 31.425596 -0.958803 -10.020206 22.318238 -0.227121 -0.345806 -1.001230 -0.098300 -2.022400 5.567400 -0.156165 6.725885 -2.981551 -7.274508 3.223060 -0.178939 1.737935 16.177767 7.508987 -2.689600 7.926100 10.628400 -83.967202 15.799315 28.563886 16.357731 -27.658222 -4.492976 -0.201569 0.556760 3.426127 -7.125000 0.000000 0.000000 84.966474 -0.464918 45.145762 -37.474116 49.135481 -14.013978 1.430450 -2.124635 -5.646984 7.125000 0.000000 0.000000 
48.774506 17.213310 -6.800690 -175.158186 1.101892 174.613451 -19.897984 15.831928 -7.413812 -1.609589 2.133900 4.652348 -1.513072 13.866048 -6.349683 1.820600 8.481900 24.187800 26.857875 -16.124057 31.229549 -1.081103 -10.305701 23.196260 -0.273307 -0.346425 0.683405 -0.121000 -2.242100 6.175100 -0.014641 6.833944 -2.935634 -6.469680 3.274377 -0.005189 1.444357 16.494440 7.629364 -2.824800 8.029100 10.776100 -84.276233 15.374039 29.165247 16.718549 -28.163815 -4.669319 -0.202811 0.550360 3.323368 -7.125000 0.000000 0.000000 84.498522 -1.128379 45.421764 -37.427590 49.034723 -13.979327 1.416204 -2.098781 -5.884241 7.125000 0.000000 0.000000 
48.760697 17.227119 -6.931211 -175.001135 0.925443 174.562098 -19.624402 16.742336 -7.386733 -1.529163 2.326202 5.245333 -1.315094 12.483992 -6.344916 2.022300 8.912500 25.521900 26.744882 -16.000521 30.910372 -1.236889 -10.674029 24.327847 -0.329017 -0.466991 2.220006 -0.329700 -3.690200 10.206600 0.024135 6.818509 -2.964329 -6.389008 3.265192 -0.135658 1.283208 16.782702 7.678952 -2.898200 8.151300 10.825700 -84.321602 15.062402 29.228460 17.018829 -28.531636 -4.812682 -0.205520 0.545107 3.384318 -7.125000 0.000000 0.000000 84.507879 -1.886660 45.783184 -37.321832 48.945245 -13.893141 1.409992 -2.099140 -5.837506 7.125000 0.000000 0.000000 
48.747093 17.242769 -7.054265 -174.955446 0.569999 174.386205 -19.579382 16.769720 -6.680369 -1.519653 2.285931 5.150112 -1.260912 12.169666 -6.285214 1.928200 8.714800 24.907200 26.539336 -15.905974 30.609276 -1.406389 -11.086752 25.603924 -0.384129 -1.071918 3.431476 -0.604100 -4.975300 13.838000 0.035294 6.722381 -2.982783 -6.430029 3.217647 -0.307025 1.160300 17.083210 7.669348 -2.962600 8.292600 10.869300 -84.220239 14.663709 29.270702 17.333184 -28.903102 -4.964247 -0.201287 0.540096 3.342458 -7.125000 0.000000 0.000000 84.746289 -2.594560 45.966370 -37.138602 48.815010 -13.755128 1.409460 -2.106492 -5.572636 7.125000 0.000000 0.000000 
